<svg viewBox="0 0 780 582" xmlns="http://www.w3.org/2000/svg" font-family="ui-sans-serif,system-ui,sans-serif"><text text-anchor="middle" x="390" y="30" font-size="13" font-weight="800" fill="#334155">1 · each chip holds its J-columns of A, and the full B:</text><text x="310.0" y="58" font-size="12.5" font-weight="800" fill="#334155" text-anchor="middle">Y = 0</text><text x="520.0" y="58" font-size="12.5" font-weight="800" fill="#334155" text-anchor="middle">Y = 1</text><text x="195" y="129.0" font-size="12.5" font-weight="800" fill="#334155" text-anchor="middle">X=0</text><text x="195" y="283.0" font-size="12.5" font-weight="800" fill="#334155" text-anchor="middle">X=1</text><rect x="215" y="64" width="190" height="130" rx="11" fill="#f1f3f5" stroke="#adb5bd" stroke-width="1.3"/><text x="229" y="84" font-size="12.5" font-weight="800" fill="#0f172a">TPU0 (X0,Y0)</text><rect x="233" y="94" width="18" height="18" fill="#5ec84a" stroke="#0f172a" stroke-width="1.1"/><text x="242.0" y="107.0" font-size="10.5" font-weight="700" fill="#0f172a" text-anchor="middle">00</text><rect x="251" y="94" width="18" height="18" fill="#859f78" stroke="#0f172a" stroke-width="1.1"/><text x="260.0" y="107.0" font-size="10.5" font-weight="700" fill="#0f172a" text-anchor="middle">01</text><rect x="233" y="112" width="18" height="18" fill="#89be41" stroke="#0f172a" stroke-width="1.1"/><text x="242.0" y="125.0" font-size="10.5" font-weight="700" fill="#0f172a" text-anchor="middle">10</text><rect x="251" y="112" width="18" height="18" fill="#91a272" stroke="#0f172a" stroke-width="1.1"/><text x="260.0" y="125.0" font-size="10.5" font-weight="700" fill="#0f172a" text-anchor="middle">11</text><rect x="233" y="130" width="18" height="18" fill="#b5b337" stroke="#0f172a" stroke-width="1.1"/><text x="242.0" y="143.0" font-size="10.5" font-weight="700" fill="#0f172a" text-anchor="middle">20</text><rect x="251" y="130" width="18" height="18" fill="#9da56c" stroke="#0f172a" stroke-width="1.1"/><text x="260.0" y="143.0" font-size="10.5" font-weight="700" fill="#0f172a" text-anchor="middle">21</text><rect x="233" y="148" width="18" height="18" fill="#e0a92e" stroke="#0f172a" stroke-width="1.1"/><text x="242.0" y="161.0" font-size="10.5" font-weight="700" fill="#0f172a" text-anchor="middle">30</text><rect x="251" y="148" width="18" height="18" fill="#a9a866" stroke="#0f172a" stroke-width="1.1"/><text x="260.0" y="161.0" font-size="10.5" font-weight="700" fill="#0f172a" text-anchor="middle">31</text><text x="251" y="180" font-size="10.5" fill="#475569" text-anchor="middle">A · J0,1</text><rect x="287" y="94" width="18" height="18" fill="#5ec84a" stroke="#0f172a" stroke-width="1.1"/><text x="296.0" y="107.0" font-size="10.5" font-weight="700" fill="#0f172a" text-anchor="middle">00</text><rect x="305" y="94" width="18" height="18" fill="#859f78" stroke="#0f172a" stroke-width="1.1"/><text x="314.0" y="107.0" font-size="10.5" font-weight="700" fill="#0f172a" text-anchor="middle">01</text><rect x="323" y="94" width="18" height="18" fill="#ac76a5" stroke="#0f172a" stroke-width="1.1"/><text x="332.0" y="107.0" font-size="10.5" font-weight="700" fill="#fff" text-anchor="middle">02</text><rect x="341" y="94" width="18" height="18" fill="#d34dd3" stroke="#0f172a" stroke-width="1.1"/><text x="350.0" y="107.0" font-size="10.5" font-weight="700" fill="#fff" text-anchor="middle">03</text><rect x="287" y="112" width="18" height="18" fill="#89be41" stroke="#0f172a" stroke-width="1.1"/><text x="296.0" y="125.0" font-size="10.5" font-weight="700" fill="#0f172a" text-anchor="middle">10</text><rect x="305" y="112" width="18" height="18" fill="#91a272" stroke="#0f172a" stroke-width="1.1"/><text x="314.0" y="125.0" font-size="10.5" font-weight="700" fill="#0f172a" text-anchor="middle">11</text><rect x="323" y="112" width="18" height="18" fill="#9886a3" stroke="#0f172a" stroke-width="1.1"/><text x="332.0" y="125.0" font-size="10.5" font-weight="700" fill="#0f172a" text-anchor="middle">12</text><rect x="341" y="112" width="18" height="18" fill="#a06bd4" stroke="#0f172a" stroke-width="1.1"/><text x="350.0" y="125.0" font-size="10.5" font-weight="700" fill="#fff" text-anchor="middle">13</text><rect x="287" y="130" width="18" height="18" fill="#b5b337" stroke="#0f172a" stroke-width="1.1"/><text x="296.0" y="143.0" font-size="10.5" font-weight="700" fill="#0f172a" text-anchor="middle">20</text><rect x="305" y="130" width="18" height="18" fill="#9da56c" stroke="#0f172a" stroke-width="1.1"/><text x="314.0" y="143.0" font-size="10.5" font-weight="700" fill="#0f172a" text-anchor="middle">21</text><rect x="323" y="130" width="18" height="18" fill="#8597a0" stroke="#0f172a" stroke-width="1.1"/><text x="332.0" y="143.0" font-size="10.5" font-weight="700" fill="#0f172a" text-anchor="middle">22</text><rect x="341" y="130" width="18" height="18" fill="#6d88d5" stroke="#0f172a" stroke-width="1.1"/><text x="350.0" y="143.0" font-size="10.5" font-weight="700" fill="#fff" text-anchor="middle">23</text><rect x="287" y="148" width="18" height="18" fill="#e0a92e" stroke="#0f172a" stroke-width="1.1"/><text x="296.0" y="161.0" font-size="10.5" font-weight="700" fill="#0f172a" text-anchor="middle">30</text><rect x="305" y="148" width="18" height="18" fill="#a9a866" stroke="#0f172a" stroke-width="1.1"/><text x="314.0" y="161.0" font-size="10.5" font-weight="700" fill="#0f172a" text-anchor="middle">31</text><rect x="323" y="148" width="18" height="18" fill="#71a79e" stroke="#0f172a" stroke-width="1.1"/><text x="332.0" y="161.0" font-size="10.5" font-weight="700" fill="#0f172a" text-anchor="middle">32</text><rect x="341" y="148" width="18" height="18" fill="#3aa6d6" stroke="#0f172a" stroke-width="1.1"/><text x="350.0" y="161.0" font-size="10.5" font-weight="700" fill="#fff" text-anchor="middle">33</text><text x="323" y="180" font-size="10.5" fill="#475569" text-anchor="middle">B (full)</text><rect x="425" y="64" width="190" height="130" rx="11" fill="#f1f3f5" stroke="#adb5bd" stroke-width="1.3"/><text x="439" y="84" font-size="12.5" font-weight="800" fill="#0f172a">TPU1 (X0,Y1)</text><rect x="443" y="94" width="18" height="18" fill="#5ec84a" stroke="#0f172a" stroke-width="1.1"/><text x="452.0" y="107.0" font-size="10.5" font-weight="700" fill="#0f172a" text-anchor="middle">00</text><rect x="461" y="94" width="18" height="18" fill="#859f78" stroke="#0f172a" stroke-width="1.1"/><text x="470.0" y="107.0" font-size="10.5" font-weight="700" fill="#0f172a" text-anchor="middle">01</text><rect x="443" y="112" width="18" height="18" fill="#89be41" stroke="#0f172a" stroke-width="1.1"/><text x="452.0" y="125.0" font-size="10.5" font-weight="700" fill="#0f172a" text-anchor="middle">10</text><rect x="461" y="112" width="18" height="18" fill="#91a272" stroke="#0f172a" stroke-width="1.1"/><text x="470.0" y="125.0" font-size="10.5" font-weight="700" fill="#0f172a" text-anchor="middle">11</text><rect x="443" y="130" width="18" height="18" fill="#b5b337" stroke="#0f172a" stroke-width="1.1"/><text x="452.0" y="143.0" font-size="10.5" font-weight="700" fill="#0f172a" text-anchor="middle">20</text><rect x="461" y="130" width="18" height="18" fill="#9da56c" stroke="#0f172a" stroke-width="1.1"/><text x="470.0" y="143.0" font-size="10.5" font-weight="700" fill="#0f172a" text-anchor="middle">21</text><rect x="443" y="148" width="18" height="18" fill="#e0a92e" stroke="#0f172a" stroke-width="1.1"/><text x="452.0" y="161.0" font-size="10.5" font-weight="700" fill="#0f172a" text-anchor="middle">30</text><rect x="461" y="148" width="18" height="18" fill="#a9a866" stroke="#0f172a" stroke-width="1.1"/><text x="470.0" y="161.0" font-size="10.5" font-weight="700" fill="#0f172a" text-anchor="middle">31</text><text x="461" y="180" font-size="10.5" fill="#475569" text-anchor="middle">A · J0,1</text><rect x="497" y="94" width="18" height="18" fill="#5ec84a" stroke="#0f172a" stroke-width="1.1"/><text x="506.0" y="107.0" font-size="10.5" font-weight="700" fill="#0f172a" text-anchor="middle">00</text><rect x="515" y="94" width="18" height="18" fill="#859f78" stroke="#0f172a" stroke-width="1.1"/><text x="524.0" y="107.0" font-size="10.5" font-weight="700" fill="#0f172a" text-anchor="middle">01</text><rect x="533" y="94" width="18" height="18" fill="#ac76a5" stroke="#0f172a" stroke-width="1.1"/><text x="542.0" y="107.0" font-size="10.5" font-weight="700" fill="#fff" text-anchor="middle">02</text><rect x="551" y="94" width="18" height="18" fill="#d34dd3" stroke="#0f172a" stroke-width="1.1"/><text x="560.0" y="107.0" font-size="10.5" font-weight="700" fill="#fff" text-anchor="middle">03</text><rect x="497" y="112" width="18" height="18" fill="#89be41" stroke="#0f172a" stroke-width="1.1"/><text x="506.0" y="125.0" font-size="10.5" font-weight="700" fill="#0f172a" text-anchor="middle">10</text><rect x="515" y="112" width="18" height="18" fill="#91a272" stroke="#0f172a" stroke-width="1.1"/><text x="524.0" y="125.0" font-size="10.5" font-weight="700" fill="#0f172a" text-anchor="middle">11</text><rect x="533" y="112" width="18" height="18" fill="#9886a3" stroke="#0f172a" stroke-width="1.1"/><text x="542.0" y="125.0" font-size="10.5" font-weight="700" fill="#0f172a" text-anchor="middle">12</text><rect x="551" y="112" width="18" height="18" fill="#a06bd4" stroke="#0f172a" stroke-width="1.1"/><text x="560.0" y="125.0" font-size="10.5" font-weight="700" fill="#fff" text-anchor="middle">13</text><rect x="497" y="130" width="18" height="18" fill="#b5b337" stroke="#0f172a" stroke-width="1.1"/><text x="506.0" y="143.0" font-size="10.5" font-weight="700" fill="#0f172a" text-anchor="middle">20</text><rect x="515" y="130" width="18" height="18" fill="#9da56c" stroke="#0f172a" stroke-width="1.1"/><text x="524.0" y="143.0" font-size="10.5" font-weight="700" fill="#0f172a" text-anchor="middle">21</text><rect x="533" y="130" width="18" height="18" fill="#8597a0" stroke="#0f172a" stroke-width="1.1"/><text x="542.0" y="143.0" font-size="10.5" font-weight="700" fill="#0f172a" text-anchor="middle">22</text><rect x="551" y="130" width="18" height="18" fill="#6d88d5" stroke="#0f172a" stroke-width="1.1"/><text x="560.0" y="143.0" font-size="10.5" font-weight="700" fill="#fff" text-anchor="middle">23</text><rect x="497" y="148" width="18" height="18" fill="#e0a92e" stroke="#0f172a" stroke-width="1.1"/><text x="506.0" y="161.0" font-size="10.5" font-weight="700" fill="#0f172a" text-anchor="middle">30</text><rect x="515" y="148" width="18" height="18" fill="#a9a866" stroke="#0f172a" stroke-width="1.1"/><text x="524.0" y="161.0" font-size="10.5" font-weight="700" fill="#0f172a" text-anchor="middle">31</text><rect x="533" y="148" width="18" height="18" fill="#71a79e" stroke="#0f172a" stroke-width="1.1"/><text x="542.0" y="161.0" font-size="10.5" font-weight="700" fill="#0f172a" text-anchor="middle">32</text><rect x="551" y="148" width="18" height="18" fill="#3aa6d6" stroke="#0f172a" stroke-width="1.1"/><text x="560.0" y="161.0" font-size="10.5" font-weight="700" fill="#fff" text-anchor="middle">33</text><text x="533" y="180" font-size="10.5" fill="#475569" text-anchor="middle">B (full)</text><rect x="215" y="218" width="190" height="130" rx="11" fill="#f1f3f5" stroke="#adb5bd" stroke-width="1.3"/><text x="229" y="238" font-size="12.5" font-weight="800" fill="#0f172a">TPU2 (X1,Y0)</text><rect x="233" y="248" width="18" height="18" fill="#ac76a5" stroke="#0f172a" stroke-width="1.1"/><text x="242.0" y="261.0" font-size="10.5" font-weight="700" fill="#fff" text-anchor="middle">02</text><rect x="251" y="248" width="18" height="18" fill="#d34dd3" stroke="#0f172a" stroke-width="1.1"/><text x="260.0" y="261.0" font-size="10.5" font-weight="700" fill="#fff" text-anchor="middle">03</text><rect x="233" y="266" width="18" height="18" fill="#9886a3" stroke="#0f172a" stroke-width="1.1"/><text x="242.0" y="279.0" font-size="10.5" font-weight="700" fill="#0f172a" text-anchor="middle">12</text><rect x="251" y="266" width="18" height="18" fill="#a06bd4" stroke="#0f172a" stroke-width="1.1"/><text x="260.0" y="279.0" font-size="10.5" font-weight="700" fill="#fff" text-anchor="middle">13</text><rect x="233" y="284" width="18" height="18" fill="#8597a0" stroke="#0f172a" stroke-width="1.1"/><text x="242.0" y="297.0" font-size="10.5" font-weight="700" fill="#0f172a" text-anchor="middle">22</text><rect x="251" y="284" width="18" height="18" fill="#6d88d5" stroke="#0f172a" stroke-width="1.1"/><text x="260.0" y="297.0" font-size="10.5" font-weight="700" fill="#fff" text-anchor="middle">23</text><rect x="233" y="302" width="18" height="18" fill="#71a79e" stroke="#0f172a" stroke-width="1.1"/><text x="242.0" y="315.0" font-size="10.5" font-weight="700" fill="#0f172a" text-anchor="middle">32</text><rect x="251" y="302" width="18" height="18" fill="#3aa6d6" stroke="#0f172a" stroke-width="1.1"/><text x="260.0" y="315.0" font-size="10.5" font-weight="700" fill="#fff" text-anchor="middle">33</text><text x="251" y="334" font-size="10.5" fill="#475569" text-anchor="middle">A · J2,3</text><rect x="287" y="248" width="18" height="18" fill="#5ec84a" stroke="#0f172a" stroke-width="1.1"/><text x="296.0" y="261.0" font-size="10.5" font-weight="700" fill="#0f172a" text-anchor="middle">00</text><rect x="305" y="248" width="18" height="18" fill="#859f78" stroke="#0f172a" stroke-width="1.1"/><text x="314.0" y="261.0" font-size="10.5" font-weight="700" fill="#0f172a" text-anchor="middle">01</text><rect x="323" y="248" width="18" height="18" fill="#ac76a5" stroke="#0f172a" stroke-width="1.1"/><text x="332.0" y="261.0" font-size="10.5" font-weight="700" fill="#fff" text-anchor="middle">02</text><rect x="341" y="248" width="18" height="18" fill="#d34dd3" stroke="#0f172a" stroke-width="1.1"/><text x="350.0" y="261.0" font-size="10.5" font-weight="700" fill="#fff" text-anchor="middle">03</text><rect x="287" y="266" width="18" height="18" fill="#89be41" stroke="#0f172a" stroke-width="1.1"/><text x="296.0" y="279.0" font-size="10.5" font-weight="700" fill="#0f172a" text-anchor="middle">10</text><rect x="305" y="266" width="18" height="18" fill="#91a272" stroke="#0f172a" stroke-width="1.1"/><text x="314.0" y="279.0" font-size="10.5" font-weight="700" fill="#0f172a" text-anchor="middle">11</text><rect x="323" y="266" width="18" height="18" fill="#9886a3" stroke="#0f172a" stroke-width="1.1"/><text x="332.0" y="279.0" font-size="10.5" font-weight="700" fill="#0f172a" text-anchor="middle">12</text><rect x="341" y="266" width="18" height="18" fill="#a06bd4" stroke="#0f172a" stroke-width="1.1"/><text x="350.0" y="279.0" font-size="10.5" font-weight="700" fill="#fff" text-anchor="middle">13</text><rect x="287" y="284" width="18" height="18" fill="#b5b337" stroke="#0f172a" stroke-width="1.1"/><text x="296.0" y="297.0" font-size="10.5" font-weight="700" fill="#0f172a" text-anchor="middle">20</text><rect x="305" y="284" width="18" height="18" fill="#9da56c" stroke="#0f172a" stroke-width="1.1"/><text x="314.0" y="297.0" font-size="10.5" font-weight="700" fill="#0f172a" text-anchor="middle">21</text><rect x="323" y="284" width="18" height="18" fill="#8597a0" stroke="#0f172a" stroke-width="1.1"/><text x="332.0" y="297.0" font-size="10.5" font-weight="700" fill="#0f172a" text-anchor="middle">22</text><rect x="341" y="284" width="18" height="18" fill="#6d88d5" stroke="#0f172a" stroke-width="1.1"/><text x="350.0" y="297.0" font-size="10.5" font-weight="700" fill="#fff" text-anchor="middle">23</text><rect x="287" y="302" width="18" height="18" fill="#e0a92e" stroke="#0f172a" stroke-width="1.1"/><text x="296.0" y="315.0" font-size="10.5" font-weight="700" fill="#0f172a" text-anchor="middle">30</text><rect x="305" y="302" width="18" height="18" fill="#a9a866" stroke="#0f172a" stroke-width="1.1"/><text x="314.0" y="315.0" font-size="10.5" font-weight="700" fill="#0f172a" text-anchor="middle">31</text><rect x="323" y="302" width="18" height="18" fill="#71a79e" stroke="#0f172a" stroke-width="1.1"/><text x="332.0" y="315.0" font-size="10.5" font-weight="700" fill="#0f172a" text-anchor="middle">32</text><rect x="341" y="302" width="18" height="18" fill="#3aa6d6" stroke="#0f172a" stroke-width="1.1"/><text x="350.0" y="315.0" font-size="10.5" font-weight="700" fill="#fff" text-anchor="middle">33</text><text x="323" y="334" font-size="10.5" fill="#475569" text-anchor="middle">B (full)</text><rect x="425" y="218" width="190" height="130" rx="11" fill="#f1f3f5" stroke="#adb5bd" stroke-width="1.3"/><text x="439" y="238" font-size="12.5" font-weight="800" fill="#0f172a">TPU3 (X1,Y1)</text><rect x="443" y="248" width="18" height="18" fill="#ac76a5" stroke="#0f172a" stroke-width="1.1"/><text x="452.0" y="261.0" font-size="10.5" font-weight="700" fill="#fff" text-anchor="middle">02</text><rect x="461" y="248" width="18" height="18" fill="#d34dd3" stroke="#0f172a" stroke-width="1.1"/><text x="470.0" y="261.0" font-size="10.5" font-weight="700" fill="#fff" text-anchor="middle">03</text><rect x="443" y="266" width="18" height="18" fill="#9886a3" stroke="#0f172a" stroke-width="1.1"/><text x="452.0" y="279.0" font-size="10.5" font-weight="700" fill="#0f172a" text-anchor="middle">12</text><rect x="461" y="266" width="18" height="18" fill="#a06bd4" stroke="#0f172a" stroke-width="1.1"/><text x="470.0" y="279.0" font-size="10.5" font-weight="700" fill="#fff" text-anchor="middle">13</text><rect x="443" y="284" width="18" height="18" fill="#8597a0" stroke="#0f172a" stroke-width="1.1"/><text x="452.0" y="297.0" font-size="10.5" font-weight="700" fill="#0f172a" text-anchor="middle">22</text><rect x="461" y="284" width="18" height="18" fill="#6d88d5" stroke="#0f172a" stroke-width="1.1"/><text x="470.0" y="297.0" font-size="10.5" font-weight="700" fill="#fff" text-anchor="middle">23</text><rect x="443" y="302" width="18" height="18" fill="#71a79e" stroke="#0f172a" stroke-width="1.1"/><text x="452.0" y="315.0" font-size="10.5" font-weight="700" fill="#0f172a" text-anchor="middle">32</text><rect x="461" y="302" width="18" height="18" fill="#3aa6d6" stroke="#0f172a" stroke-width="1.1"/><text x="470.0" y="315.0" font-size="10.5" font-weight="700" fill="#fff" text-anchor="middle">33</text><text x="461" y="334" font-size="10.5" fill="#475569" text-anchor="middle">A · J2,3</text><rect x="497" y="248" width="18" height="18" fill="#5ec84a" stroke="#0f172a" stroke-width="1.1"/><text x="506.0" y="261.0" font-size="10.5" font-weight="700" fill="#0f172a" text-anchor="middle">00</text><rect x="515" y="248" width="18" height="18" fill="#859f78" stroke="#0f172a" stroke-width="1.1"/><text x="524.0" y="261.0" font-size="10.5" font-weight="700" fill="#0f172a" text-anchor="middle">01</text><rect x="533" y="248" width="18" height="18" fill="#ac76a5" stroke="#0f172a" stroke-width="1.1"/><text x="542.0" y="261.0" font-size="10.5" font-weight="700" fill="#fff" text-anchor="middle">02</text><rect x="551" y="248" width="18" height="18" fill="#d34dd3" stroke="#0f172a" stroke-width="1.1"/><text x="560.0" y="261.0" font-size="10.5" font-weight="700" fill="#fff" text-anchor="middle">03</text><rect x="497" y="266" width="18" height="18" fill="#89be41" stroke="#0f172a" stroke-width="1.1"/><text x="506.0" y="279.0" font-size="10.5" font-weight="700" fill="#0f172a" text-anchor="middle">10</text><rect x="515" y="266" width="18" height="18" fill="#91a272" stroke="#0f172a" stroke-width="1.1"/><text x="524.0" y="279.0" font-size="10.5" font-weight="700" fill="#0f172a" text-anchor="middle">11</text><rect x="533" y="266" width="18" height="18" fill="#9886a3" stroke="#0f172a" stroke-width="1.1"/><text x="542.0" y="279.0" font-size="10.5" font-weight="700" fill="#0f172a" text-anchor="middle">12</text><rect x="551" y="266" width="18" height="18" fill="#a06bd4" stroke="#0f172a" stroke-width="1.1"/><text x="560.0" y="279.0" font-size="10.5" font-weight="700" fill="#fff" text-anchor="middle">13</text><rect x="497" y="284" width="18" height="18" fill="#b5b337" stroke="#0f172a" stroke-width="1.1"/><text x="506.0" y="297.0" font-size="10.5" font-weight="700" fill="#0f172a" text-anchor="middle">20</text><rect x="515" y="284" width="18" height="18" fill="#9da56c" stroke="#0f172a" stroke-width="1.1"/><text x="524.0" y="297.0" font-size="10.5" font-weight="700" fill="#0f172a" text-anchor="middle">21</text><rect x="533" y="284" width="18" height="18" fill="#8597a0" stroke="#0f172a" stroke-width="1.1"/><text x="542.0" y="297.0" font-size="10.5" font-weight="700" fill="#0f172a" text-anchor="middle">22</text><rect x="551" y="284" width="18" height="18" fill="#6d88d5" stroke="#0f172a" stroke-width="1.1"/><text x="560.0" y="297.0" font-size="10.5" font-weight="700" fill="#fff" text-anchor="middle">23</text><rect x="497" y="302" width="18" height="18" fill="#e0a92e" stroke="#0f172a" stroke-width="1.1"/><text x="506.0" y="315.0" font-size="10.5" font-weight="700" fill="#0f172a" text-anchor="middle">30</text><rect x="515" y="302" width="18" height="18" fill="#a9a866" stroke="#0f172a" stroke-width="1.1"/><text x="524.0" y="315.0" font-size="10.5" font-weight="700" fill="#0f172a" text-anchor="middle">31</text><rect x="533" y="302" width="18" height="18" fill="#71a79e" stroke="#0f172a" stroke-width="1.1"/><text x="542.0" y="315.0" font-size="10.5" font-weight="700" fill="#0f172a" text-anchor="middle">32</text><rect x="551" y="302" width="18" height="18" fill="#3aa6d6" stroke="#0f172a" stroke-width="1.1"/><text x="560.0" y="315.0" font-size="10.5" font-weight="700" fill="#fff" text-anchor="middle">33</text><text x="533" y="334" font-size="10.5" fill="#475569" text-anchor="middle">B (full)</text><defs><marker id="ao" markerWidth="9" markerHeight="9" refX="6" refY="3" orient="auto"><path d="M0,0 L6,3 L0,6 Z" fill="#b45309"/></marker></defs><path d="M390 354 V 384" stroke="#b45309" stroke-width="3" marker-end="url(#ao)"/><text x="406" y="376" font-size="13" font-weight="800" fill="#b45309">AllGather A over X  (X0↔X1 swap J-columns)</text><text text-anchor="middle" x="390" y="402" font-size="13" font-weight="800" fill="#334155">2 · now every chip has the full A  →  ordinary local matmul, full result:</text><rect x="216" y="416" width="24" height="24" fill="#5ec84a" stroke="#0f172a" stroke-width="1.1"/><text x="228.0" y="432.0" font-size="10.5" font-weight="700" fill="#0f172a" text-anchor="middle">00</text><rect x="240" y="416" width="24" height="24" fill="#859f78" stroke="#0f172a" stroke-width="1.1"/><text x="252.0" y="432.0" font-size="10.5" font-weight="700" fill="#0f172a" text-anchor="middle">01</text><rect x="264" y="416" width="24" height="24" fill="#ac76a5" stroke="#0f172a" stroke-width="1.1"/><text x="276.0" y="432.0" font-size="10.5" font-weight="700" fill="#fff" text-anchor="middle">02</text><rect x="288" y="416" width="24" height="24" fill="#d34dd3" stroke="#0f172a" stroke-width="1.1"/><text x="300.0" y="432.0" font-size="10.5" font-weight="700" fill="#fff" text-anchor="middle">03</text><rect x="216" y="440" width="24" height="24" fill="#89be41" stroke="#0f172a" stroke-width="1.1"/><text x="228.0" y="456.0" font-size="10.5" font-weight="700" fill="#0f172a" text-anchor="middle">10</text><rect x="240" y="440" width="24" height="24" fill="#91a272" stroke="#0f172a" stroke-width="1.1"/><text x="252.0" y="456.0" font-size="10.5" font-weight="700" fill="#0f172a" text-anchor="middle">11</text><rect x="264" y="440" width="24" height="24" fill="#9886a3" stroke="#0f172a" stroke-width="1.1"/><text x="276.0" y="456.0" font-size="10.5" font-weight="700" fill="#0f172a" text-anchor="middle">12</text><rect x="288" y="440" width="24" height="24" fill="#a06bd4" stroke="#0f172a" stroke-width="1.1"/><text x="300.0" y="456.0" font-size="10.5" font-weight="700" fill="#fff" text-anchor="middle">13</text><rect x="216" y="464" width="24" height="24" fill="#b5b337" stroke="#0f172a" stroke-width="1.1"/><text x="228.0" y="480.0" font-size="10.5" font-weight="700" fill="#0f172a" text-anchor="middle">20</text><rect x="240" y="464" width="24" height="24" fill="#9da56c" stroke="#0f172a" stroke-width="1.1"/><text x="252.0" y="480.0" font-size="10.5" font-weight="700" fill="#0f172a" text-anchor="middle">21</text><rect x="264" y="464" width="24" height="24" fill="#8597a0" stroke="#0f172a" stroke-width="1.1"/><text x="276.0" y="480.0" font-size="10.5" font-weight="700" fill="#0f172a" text-anchor="middle">22</text><rect x="288" y="464" width="24" height="24" fill="#6d88d5" stroke="#0f172a" stroke-width="1.1"/><text x="300.0" y="480.0" font-size="10.5" font-weight="700" fill="#fff" text-anchor="middle">23</text><rect x="216" y="488" width="24" height="24" fill="#e0a92e" stroke="#0f172a" stroke-width="1.1"/><text x="228.0" y="504.0" font-size="10.5" font-weight="700" fill="#0f172a" text-anchor="middle">30</text><rect x="240" y="488" width="24" height="24" fill="#a9a866" stroke="#0f172a" stroke-width="1.1"/><text x="252.0" y="504.0" font-size="10.5" font-weight="700" fill="#0f172a" text-anchor="middle">31</text><rect x="264" y="488" width="24" height="24" fill="#71a79e" stroke="#0f172a" stroke-width="1.1"/><text x="276.0" y="504.0" font-size="10.5" font-weight="700" fill="#0f172a" text-anchor="middle">32</text><rect x="288" y="488" width="24" height="24" fill="#3aa6d6" stroke="#0f172a" stroke-width="1.1"/><text x="300.0" y="504.0" font-size="10.5" font-weight="700" fill="#fff" text-anchor="middle">33</text><text x="322" y="466" font-size="20" fill="#475569" text-anchor="middle">×</text><rect x="346" y="416" width="24" height="24" fill="#5ec84a" stroke="#0f172a" stroke-width="1.1"/><text x="358.0" y="432.0" font-size="10.5" font-weight="700" fill="#0f172a" text-anchor="middle">00</text><rect x="370" y="416" width="24" height="24" fill="#859f78" stroke="#0f172a" stroke-width="1.1"/><text x="382.0" y="432.0" font-size="10.5" font-weight="700" fill="#0f172a" text-anchor="middle">01</text><rect x="394" y="416" width="24" height="24" fill="#ac76a5" stroke="#0f172a" stroke-width="1.1"/><text x="406.0" y="432.0" font-size="10.5" font-weight="700" fill="#fff" text-anchor="middle">02</text><rect x="418" y="416" width="24" height="24" fill="#d34dd3" stroke="#0f172a" stroke-width="1.1"/><text x="430.0" y="432.0" font-size="10.5" font-weight="700" fill="#fff" text-anchor="middle">03</text><rect x="346" y="440" width="24" height="24" fill="#89be41" stroke="#0f172a" stroke-width="1.1"/><text x="358.0" y="456.0" font-size="10.5" font-weight="700" fill="#0f172a" text-anchor="middle">10</text><rect x="370" y="440" width="24" height="24" fill="#91a272" stroke="#0f172a" stroke-width="1.1"/><text x="382.0" y="456.0" font-size="10.5" font-weight="700" fill="#0f172a" text-anchor="middle">11</text><rect x="394" y="440" width="24" height="24" fill="#9886a3" stroke="#0f172a" stroke-width="1.1"/><text x="406.0" y="456.0" font-size="10.5" font-weight="700" fill="#0f172a" text-anchor="middle">12</text><rect x="418" y="440" width="24" height="24" fill="#a06bd4" stroke="#0f172a" stroke-width="1.1"/><text x="430.0" y="456.0" font-size="10.5" font-weight="700" fill="#fff" text-anchor="middle">13</text><rect x="346" y="464" width="24" height="24" fill="#b5b337" stroke="#0f172a" stroke-width="1.1"/><text x="358.0" y="480.0" font-size="10.5" font-weight="700" fill="#0f172a" text-anchor="middle">20</text><rect x="370" y="464" width="24" height="24" fill="#9da56c" stroke="#0f172a" stroke-width="1.1"/><text x="382.0" y="480.0" font-size="10.5" font-weight="700" fill="#0f172a" text-anchor="middle">21</text><rect x="394" y="464" width="24" height="24" fill="#8597a0" stroke="#0f172a" stroke-width="1.1"/><text x="406.0" y="480.0" font-size="10.5" font-weight="700" fill="#0f172a" text-anchor="middle">22</text><rect x="418" y="464" width="24" height="24" fill="#6d88d5" stroke="#0f172a" stroke-width="1.1"/><text x="430.0" y="480.0" font-size="10.5" font-weight="700" fill="#fff" text-anchor="middle">23</text><rect x="346" y="488" width="24" height="24" fill="#e0a92e" stroke="#0f172a" stroke-width="1.1"/><text x="358.0" y="504.0" font-size="10.5" font-weight="700" fill="#0f172a" text-anchor="middle">30</text><rect x="370" y="488" width="24" height="24" fill="#a9a866" stroke="#0f172a" stroke-width="1.1"/><text x="382.0" y="504.0" font-size="10.5" font-weight="700" fill="#0f172a" text-anchor="middle">31</text><rect x="394" y="488" width="24" height="24" fill="#71a79e" stroke="#0f172a" stroke-width="1.1"/><text x="406.0" y="504.0" font-size="10.5" font-weight="700" fill="#0f172a" text-anchor="middle">32</text><rect x="418" y="488" width="24" height="24" fill="#3aa6d6" stroke="#0f172a" stroke-width="1.1"/><text x="430.0" y="504.0" font-size="10.5" font-weight="700" fill="#fff" text-anchor="middle">33</text><text x="452" y="466" font-size="20" fill="#475569" text-anchor="middle">=</text><rect x="476" y="416" width="24" height="24" fill="#5ec84a" stroke="#0f172a" stroke-width="1.1"/><text x="488.0" y="432.0" font-size="10.5" font-weight="700" fill="#0f172a" text-anchor="middle">00</text><rect x="500" y="416" width="24" height="24" fill="#859f78" stroke="#0f172a" stroke-width="1.1"/><text x="512.0" y="432.0" font-size="10.5" font-weight="700" fill="#0f172a" text-anchor="middle">01</text><rect x="524" y="416" width="24" height="24" fill="#ac76a5" stroke="#0f172a" stroke-width="1.1"/><text x="536.0" y="432.0" font-size="10.5" font-weight="700" fill="#fff" text-anchor="middle">02</text><rect x="548" y="416" width="24" height="24" fill="#d34dd3" stroke="#0f172a" stroke-width="1.1"/><text x="560.0" y="432.0" font-size="10.5" font-weight="700" fill="#fff" text-anchor="middle">03</text><rect x="476" y="440" width="24" height="24" fill="#89be41" stroke="#0f172a" stroke-width="1.1"/><text x="488.0" y="456.0" font-size="10.5" font-weight="700" fill="#0f172a" text-anchor="middle">10</text><rect x="500" y="440" width="24" height="24" fill="#91a272" stroke="#0f172a" stroke-width="1.1"/><text x="512.0" y="456.0" font-size="10.5" font-weight="700" fill="#0f172a" text-anchor="middle">11</text><rect x="524" y="440" width="24" height="24" fill="#9886a3" stroke="#0f172a" stroke-width="1.1"/><text x="536.0" y="456.0" font-size="10.5" font-weight="700" fill="#0f172a" text-anchor="middle">12</text><rect x="548" y="440" width="24" height="24" fill="#a06bd4" stroke="#0f172a" stroke-width="1.1"/><text x="560.0" y="456.0" font-size="10.5" font-weight="700" fill="#fff" text-anchor="middle">13</text><rect x="476" y="464" width="24" height="24" fill="#b5b337" stroke="#0f172a" stroke-width="1.1"/><text x="488.0" y="480.0" font-size="10.5" font-weight="700" fill="#0f172a" text-anchor="middle">20</text><rect x="500" y="464" width="24" height="24" fill="#9da56c" stroke="#0f172a" stroke-width="1.1"/><text x="512.0" y="480.0" font-size="10.5" font-weight="700" fill="#0f172a" text-anchor="middle">21</text><rect x="524" y="464" width="24" height="24" fill="#8597a0" stroke="#0f172a" stroke-width="1.1"/><text x="536.0" y="480.0" font-size="10.5" font-weight="700" fill="#0f172a" text-anchor="middle">22</text><rect x="548" y="464" width="24" height="24" fill="#6d88d5" stroke="#0f172a" stroke-width="1.1"/><text x="560.0" y="480.0" font-size="10.5" font-weight="700" fill="#fff" text-anchor="middle">23</text><rect x="476" y="488" width="24" height="24" fill="#e0a92e" stroke="#0f172a" stroke-width="1.1"/><text x="488.0" y="504.0" font-size="10.5" font-weight="700" fill="#0f172a" text-anchor="middle">30</text><rect x="500" y="488" width="24" height="24" fill="#a9a866" stroke="#0f172a" stroke-width="1.1"/><text x="512.0" y="504.0" font-size="10.5" font-weight="700" fill="#0f172a" text-anchor="middle">31</text><rect x="524" y="488" width="24" height="24" fill="#71a79e" stroke="#0f172a" stroke-width="1.1"/><text x="536.0" y="504.0" font-size="10.5" font-weight="700" fill="#0f172a" text-anchor="middle">32</text><rect x="548" y="488" width="24" height="24" fill="#3aa6d6" stroke="#0f172a" stroke-width="1.1"/><text x="560.0" y="504.0" font-size="10.5" font-weight="700" fill="#fff" text-anchor="middle">33</text><text x="264" y="528" font-size="11" fill="#475569" text-anchor="middle">full A (4×4)</text><text x="394" y="528" font-size="11" fill="#475569" text-anchor="middle">full B (4×4)</text><text x="524" y="528" font-size="11" fill="#475569" text-anchor="middle">full C (4×4)</text><text text-anchor="middle" x="390" y="556" font-size="12.5" font-weight="700" fill="#b45309">Communication = one AllGather of A.  Cost ≈ V/W  (V = bytes of A).</text></svg>